<?xml version="1.0" encoding="UTF-8"?>
<svg xmlns="http://www.w3.org/2000/svg" xmlns:xlink="http://www.w3.org/1999/xlink" viewBox="0 0 24 24" width="24px" height="24px">
<g id="surface35198869">
<path style=" stroke:none;fill-rule:nonzero;fill:rgb(100%,100%,100%);fill-opacity:1;" d="M 9.5 1 C 7.027344 1 5 3.027344 5 5.5 C 5 6.941406 5.734375 8.175781 6.796875 9 C 5.734375 9.824219 5 11.058594 5 12.5 C 5 13.941406 5.734375 15.175781 6.796875 16 C 5.734375 16.824219 5 18.058594 5 19.5 C 5 21.972656 7.027344 24 9.5 24 C 11.972656 24 14 21.972656 14 19.5 L 14 10 L 16.5 10 C 18.972656 10 21 7.972656 21 5.5 C 21 3.027344 18.972656 1 16.5 1 Z M 9.5 3 L 12 3 L 12 8 L 9.5 8 C 8.109375 8 7 6.890625 7 5.5 C 7 4.109375 8.109375 3 9.5 3 Z M 14 3 L 16.5 3 C 17.890625 3 19 4.109375 19 5.5 C 19 6.890625 17.890625 8 16.5 8 L 14 8 Z M 9.5 10 L 12 10 L 12 15 L 9.5 15 C 8.109375 15 7 13.890625 7 12.5 C 7 11.109375 8.109375 10 9.5 10 Z M 17 10 C 15.34375 10 14 11.34375 14 13 C 14 14.65625 15.34375 16 17 16 C 18.65625 16 20 14.65625 20 13 C 20 11.34375 18.65625 10 17 10 Z M 9.5 17 L 12 17 L 12 19.5 C 12 20.890625 10.890625 22 9.5 22 C 8.109375 22 7 20.890625 7 19.5 C 7 18.109375 8.109375 17 9.5 17 Z M 9.5 17 "/>
</g>
</svg>
